<svg width="52" height="40" viewBox="0 0 52 40" fill="none" xmlns="http://www.w3.org/2000/svg">
<path d="M13 5C-4.21032 14.7117 -0.5 29 13 35.5" stroke="url(#paint0_linear_29_656)" stroke-width="1.5" stroke-linecap="square"/>
<circle cx="13" cy="5" r="5" fill="url(#paint1_linear_29_656)"/>
<circle cx="13" cy="35" r="5" fill="url(#paint2_linear_29_656)"/>
<path d="M29.5581 5C12.3478 14.7117 16.0581 29 29.5581 35.5" stroke="url(#paint3_linear_29_656)" stroke-width="1.5" stroke-linecap="square"/>
<circle cx="29.5581" cy="5" r="5" fill="url(#paint4_linear_29_656)"/>
<circle cx="29.5581" cy="35" r="5" fill="url(#paint5_linear_29_656)"/>
<path d="M46.5581 5C29.3478 14.7117 33.0581 29 46.5581 35.5" stroke="url(#paint6_linear_29_656)" stroke-width="1.5" stroke-linecap="square"/>
<circle cx="46.5581" cy="5" r="5" fill="url(#paint7_linear_29_656)"/>
<circle cx="46.5581" cy="35" r="5" fill="url(#paint8_linear_29_656)"/>
<defs>
<linearGradient id="paint0_linear_29_656" x1="7.22094" y1="5" x2="7.22094" y2="35.5" gradientUnits="userSpaceOnUse">
<stop stop-color="#364FE5"/>
<stop offset="1" stop-color="#12248D"/>
</linearGradient>
<linearGradient id="paint1_linear_29_656" x1="13" y1="0" x2="13" y2="10" gradientUnits="userSpaceOnUse">
<stop stop-color="#364FE5"/>
<stop offset="1" stop-color="#12248D"/>
</linearGradient>
<linearGradient id="paint2_linear_29_656" x1="13" y1="30" x2="13" y2="40" gradientUnits="userSpaceOnUse">
<stop stop-color="#364FE5"/>
<stop offset="1" stop-color="#12248D"/>
</linearGradient>
<linearGradient id="paint3_linear_29_656" x1="23.779" y1="5" x2="23.779" y2="35.5" gradientUnits="userSpaceOnUse">
<stop stop-color="#364FE5"/>
<stop offset="1" stop-color="#12248D"/>
</linearGradient>
<linearGradient id="paint4_linear_29_656" x1="29.5581" y1="0" x2="29.5581" y2="10" gradientUnits="userSpaceOnUse">
<stop stop-color="#364FE5"/>
<stop offset="1" stop-color="#12248D"/>
</linearGradient>
<linearGradient id="paint5_linear_29_656" x1="29.5581" y1="30" x2="29.5581" y2="40" gradientUnits="userSpaceOnUse">
<stop stop-color="#364FE5"/>
<stop offset="1" stop-color="#12248D"/>
</linearGradient>
<linearGradient id="paint6_linear_29_656" x1="40.779" y1="5" x2="40.779" y2="35.5" gradientUnits="userSpaceOnUse">
<stop stop-color="#364FE5"/>
<stop offset="1" stop-color="#12248D"/>
</linearGradient>
<linearGradient id="paint7_linear_29_656" x1="46.5581" y1="0" x2="46.5581" y2="10" gradientUnits="userSpaceOnUse">
<stop stop-color="#364FE5"/>
<stop offset="1" stop-color="#12248D"/>
</linearGradient>
<linearGradient id="paint8_linear_29_656" x1="46.5581" y1="30" x2="46.5581" y2="40" gradientUnits="userSpaceOnUse">
<stop stop-color="#364FE5"/>
<stop offset="1" stop-color="#12248D"/>
</linearGradient>
</defs>
</svg>
