<svg width="30" height="31" viewBox="0 0 30 31" fill="none" xmlns="http://www.w3.org/2000/svg">
<path d="M15 3.18036L6.81818 10.0504V7.68036H4.09091V12.3454L0 15.7804L1.65 18.1654L4.09091 16.1104V30.1804H25.9091V16.1104L28.35 18.1504L30 15.7804L15 3.18036ZM23.1818 27.1804H16.3636V21.1804H13.6364V27.1804H6.81818V13.8304L15 6.96036L23.1818 13.8304V27.1804ZM12.2727 0.180359C12.2727 2.67036 10.4455 4.68036 8.18182 4.68036C7.43182 4.68036 6.81818 5.35536 6.81818 6.18036H4.09091C4.09091 3.69036 5.91818 1.68036 8.18182 1.68036C8.93182 1.68036 9.54545 1.00536 9.54545 0.180359H12.2727Z" fill="url(#paint0_linear_6_308)"/>
<defs>
<linearGradient id="paint0_linear_6_308" x1="15" y1="0.180359" x2="15" y2="30.1804" gradientUnits="userSpaceOnUse">
<stop stop-color="#364FE5"/>
<stop offset="1" stop-color="#12248D"/>
</linearGradient>
</defs>
</svg>
