<svg width="35" height="35" viewBox="0 0 35 35" fill="none" xmlns="http://www.w3.org/2000/svg">
<path d="M17.5 20.4167V18.9583H19.6875V19.6875H22.6042V18.2292H18.9583C18.1562 18.2292 17.5 17.5729 17.5 16.7708V14.5833C17.5 13.7813 18.1562 13.125 18.9583 13.125H23.3333C24.1354 13.125 24.7917 13.7813 24.7917 14.5833V16.0417H22.6042V15.3125H19.6875V16.7708H23.3333C24.1354 16.7708 24.7917 17.4271 24.7917 18.2292V20.4167C24.7917 21.2188 24.1354 21.875 23.3333 21.875H18.9583C18.1562 21.875 17.5 21.2188 17.5 20.4167ZM13.125 13.125V19.6875H10.9375V18.2292H8.75V19.6875C8.75 20.8979 9.72708 21.875 10.9375 21.875H13.125C14.3354 21.875 15.3125 20.8979 15.3125 19.6875V13.125C15.3125 13.125 14.3354 13.125 13.125 13.125Z" fill="#EECB01"/>
</svg>
