<svg width="27" height="9" viewBox="0 0 27 9" fill="none" xmlns="http://www.w3.org/2000/svg">
<path d="M9.85417 7.41667V5.95833H12.0417V6.6875H14.9583V5.22917H11.3125C10.5104 5.22917 9.85417 4.57292 9.85417 3.77083V1.58333C9.85417 0.78125 10.5104 0.125 11.3125 0.125H15.6875C16.4896 0.125 17.1458 0.78125 17.1458 1.58333V3.04167H14.9583V2.3125H12.0417V3.77083H15.6875C16.4896 3.77083 17.1458 4.42708 17.1458 5.22917V7.41667C17.1458 8.21875 16.4896 8.875 15.6875 8.875H11.3125C10.5104 8.875 9.85417 8.21875 9.85417 7.41667ZM20.7917 8.875H25.1667C25.9688 8.875 26.625 8.21875 26.625 7.41667V5.22917C26.625 4.42708 25.9688 3.77083 25.1667 3.77083H21.5208V2.3125H24.4375V3.04167H26.625V1.58333C26.625 0.78125 25.9688 0.125 25.1667 0.125H20.7917C19.9896 0.125 19.3333 0.78125 19.3333 1.58333V3.77083C19.3333 4.57292 19.9896 5.22917 20.7917 5.22917H24.4375V6.6875H21.5208V5.95833H19.3333V7.41667C19.3333 8.21875 19.9896 8.875 20.7917 8.875ZM7.66667 1.58333C7.66667 0.78125 7.01042 0.125 6.20833 0.125H1.83333C1.03125 0.125 0.375 0.78125 0.375 1.58333V7.41667C0.375 8.21875 1.03125 8.875 1.83333 8.875H6.20833C7.01042 8.875 7.66667 8.21875 7.66667 7.41667V5.95833H5.47917V6.6875H2.5625V2.3125H5.47917V3.04167H7.66667V1.58333Z" fill="#0175B2"/>
</svg>
