<svg width="181" height="71" viewBox="0 0 181 71" fill="none" xmlns="http://www.w3.org/2000/svg">
<path d="M19.7479 37.9821V23.2995H9.2093V37.9821H0.900024V3.72278H9.2093V16.9717H19.7479V3.72278H28.0572V37.9821H19.7479Z" fill="black"/>
<path d="M51.8711 38.0315C50.7902 41.4261 49.0169 44.0298 46.5512 45.8424C44.1192 47.688 40.8428 48.7262 36.7219 48.9569L35.8606 43.4695C38.4277 43.1399 40.3192 42.5796 41.5352 41.7887C42.785 40.9977 43.7814 39.7288 44.5245 37.9821H41.7885L33.5806 11.7314H42.0925L46.9058 32.989L52.1751 11.7314H60.4337L51.8711 38.0315Z" fill="black"/>
<path d="M81.0335 10.891C84.2424 10.891 86.7082 12.1269 88.4308 14.5987C90.1535 17.0376 91.0148 20.4652 91.0148 24.8815C91.0148 27.584 90.5757 29.9899 89.6975 32.0992C88.853 34.2084 87.6202 35.8563 85.9988 37.0428C84.4113 38.2292 82.5198 38.8225 80.3242 38.8225C78.8718 38.8225 77.5376 38.5259 76.3216 37.9326C75.1394 37.3394 74.126 36.5155 73.2816 35.4608L72.8763 37.9821H65.783V1.30041L73.7883 0.459991V14.401C74.5989 13.3134 75.6291 12.4565 76.8789 11.8303C78.1625 11.2041 79.5473 10.891 81.0335 10.891ZM77.9936 33.1373C81.1349 33.1373 82.7055 30.3854 82.7055 24.8815C82.7055 21.7505 82.334 19.5918 81.5909 18.4053C80.8478 17.2189 79.7669 16.6256 78.3482 16.6256C76.558 16.6256 75.038 17.6473 73.7883 19.6907V30.6161C74.2949 31.407 74.9029 32.0332 75.6123 32.4946C76.3554 32.9231 77.1491 33.1373 77.9936 33.1373Z" fill="black"/>
<path d="M108.022 10.891C109.948 10.891 111.755 11.1712 113.444 11.7314C115.133 12.2917 116.619 13.0827 117.902 14.1044L114.964 18.5042C112.768 17.1529 110.556 16.4773 108.326 16.4773C107.279 16.4773 106.469 16.6586 105.894 17.0211C105.354 17.3507 105.084 17.8286 105.084 18.4548C105.084 18.9491 105.202 19.3611 105.438 19.6907C105.709 19.9873 106.232 20.3004 107.009 20.63C107.786 20.9595 108.985 21.355 110.606 21.8164C113.41 22.6074 115.487 23.6456 116.838 24.9309C118.223 26.1833 118.916 27.93 118.916 30.1711C118.916 31.9508 118.392 33.4998 117.345 34.8181C116.298 36.1035 114.862 37.0922 113.038 37.7843C111.214 38.4764 109.188 38.8225 106.958 38.8225C104.695 38.8225 102.584 38.4764 100.625 37.7843C98.6999 37.0922 97.0617 36.1364 95.7105 34.917L99.6119 30.6655C101.875 32.3793 104.256 33.2362 106.756 33.2362C107.972 33.2362 108.918 33.022 109.593 32.5935C110.302 32.1651 110.657 31.5554 110.657 30.7644C110.657 30.1382 110.522 29.6438 110.252 29.2813C109.982 28.9188 109.458 28.5892 108.681 28.2926C107.904 27.963 106.671 27.5675 104.982 27.1061C102.314 26.3481 100.321 25.2934 99.0039 23.9422C97.6865 22.5909 97.0279 20.9101 97.0279 18.8997C97.0279 17.3836 97.467 16.0324 98.3452 14.8459C99.2572 13.6265 100.541 12.6707 102.196 11.9786C103.885 11.2536 105.827 10.891 108.022 10.891Z" fill="black"/>
<path d="M137.226 10.891C141.347 10.891 144.573 12.1269 146.904 14.5987C149.234 17.0376 150.4 20.4652 150.4 24.8815C150.4 27.6829 149.859 30.1382 148.778 32.2475C147.731 34.3238 146.211 35.9387 144.218 37.0922C142.259 38.2457 139.929 38.8225 137.226 38.8225C133.139 38.8225 129.914 37.6031 127.549 35.1642C125.219 32.6924 124.053 29.2483 124.053 24.832C124.053 22.0307 124.577 19.5918 125.624 17.5155C126.705 15.4062 128.225 13.7748 130.184 12.6213C132.177 11.4678 134.524 10.891 137.226 10.891ZM137.226 16.6256C135.605 16.6256 134.389 17.3013 133.578 18.6525C132.768 19.9708 132.362 22.0307 132.362 24.832C132.362 27.6993 132.751 29.7921 133.528 31.1104C134.338 32.4287 135.571 33.0879 137.226 33.0879C138.848 33.0879 140.064 32.4287 140.874 31.1104C141.685 29.7592 142.09 27.6829 142.09 24.8815C142.09 22.0142 141.685 19.9214 140.874 18.6031C140.098 17.2848 138.882 16.6256 137.226 16.6256Z" fill="black"/>
<path d="M173.452 10.891C175.783 10.891 177.607 11.5831 178.924 12.9673C180.241 14.3516 180.9 16.2961 180.9 18.8008V37.9821H172.895V20.1356C172.895 18.8173 172.675 17.911 172.236 17.4166C171.831 16.8893 171.206 16.6256 170.361 16.6256C168.74 16.6256 167.186 17.7627 165.7 20.0367V37.9821H157.695V11.7314H164.687L165.244 14.8459C166.393 13.5276 167.625 12.5389 168.943 11.8798C170.294 11.2206 171.797 10.891 173.452 10.891Z" fill="black"/>
<path d="M65.4742 70.1156V48.6998H76.1598L75.9672 49.9835H66.9824V58.7189H74.7479V59.9713H66.9824V70.1156H65.4742Z" fill="#1A2EA1"/>
<path d="M90.4069 66.5776C90.4069 67.496 90.5138 68.1535 90.7278 68.5501C90.9631 68.9467 91.3268 69.2389 91.8188 69.4268L91.4658 70.46C90.7385 70.2721 90.1823 69.959 89.7972 69.5207C89.4335 69.0824 89.2089 68.4353 89.1233 67.5795C87.904 69.4998 86.1391 70.46 83.8287 70.46C82.2457 70.46 80.9942 70.0217 80.0743 69.145C79.1545 68.2475 78.6945 67.0577 78.6945 65.5757C78.6945 63.9059 79.3042 62.6222 80.5236 61.7246C81.7429 60.8062 83.4009 60.347 85.4973 60.347H88.9308V58.625C88.9308 57.2682 88.6206 56.2767 88.0002 55.6506C87.3799 55.0244 86.353 54.7113 84.9197 54.7113C83.572 54.7113 82.0531 55.0348 80.3631 55.6819L79.946 54.5234C81.8071 53.8137 83.5078 53.4589 85.0481 53.4589C86.8878 53.4589 88.2356 53.8868 89.0912 54.7426C89.9683 55.5984 90.4069 56.8612 90.4069 58.531V66.5776ZM84.0212 69.2389C86.1819 69.2389 87.8184 68.2057 88.9308 66.1393V61.4741H85.7219C83.9678 61.4741 82.62 61.8185 81.6788 62.5074C80.7375 63.1753 80.2669 64.1876 80.2669 65.5444C80.2669 66.7133 80.5984 67.6213 81.2616 68.2683C81.9248 68.9154 82.8447 69.2389 84.0212 69.2389Z" fill="#1A2EA1"/>
<path d="M105.655 53.4589C107.58 53.4589 109.067 54.1894 110.115 55.6506C111.185 57.0908 111.72 59.1572 111.72 61.8499C111.72 64.5216 111.163 66.6298 110.051 68.1744C108.96 69.6981 107.42 70.46 105.43 70.46C104.382 70.46 103.441 70.2304 102.606 69.7712C101.772 69.312 101.066 68.7067 100.488 67.9552L100.328 70.1156H99.0445V47.103L100.521 46.9152V56.1202C101.911 54.346 103.622 53.4589 105.655 53.4589ZM105.206 69.2076C106.789 69.2076 108.008 68.5814 108.864 67.329C109.719 66.0767 110.147 64.2503 110.147 61.8499C110.147 59.4495 109.741 57.6544 108.928 56.4646C108.136 55.2748 106.97 54.68 105.43 54.68C104.382 54.68 103.473 54.9304 102.703 55.4314C101.954 55.9115 101.227 56.6212 100.521 57.5604V66.515C101.098 67.3499 101.783 68.0074 102.574 68.4875C103.366 68.9676 104.243 69.2076 105.206 69.2076Z" fill="#1A2EA1"/>
<path d="M120.614 53.772V70.1156H119.138V53.772H120.614ZM119.876 46.8213C120.218 46.8213 120.496 46.9256 120.71 47.1343C120.924 47.3431 121.031 47.604 121.031 47.9171C121.031 48.2302 120.924 48.4911 120.71 48.6998C120.496 48.9086 120.218 49.0129 119.876 49.0129C119.533 49.0129 119.255 48.9086 119.041 48.6998C118.827 48.4911 118.72 48.2302 118.72 47.9171C118.72 47.604 118.827 47.3431 119.041 47.1343C119.255 46.9256 119.533 46.8213 119.876 46.8213Z" fill="#1A2EA1"/>
<path d="M139.373 66.5776C139.373 67.496 139.48 68.1535 139.694 68.5501C139.93 68.9467 140.293 69.2389 140.785 69.4268L140.432 70.46C139.705 70.2721 139.149 69.959 138.764 69.5207C138.4 69.0824 138.175 68.4353 138.09 67.5795C136.871 69.4998 135.106 70.46 132.795 70.46C131.212 70.46 129.961 70.0217 129.041 69.145C128.121 68.2475 127.661 67.0577 127.661 65.5757C127.661 63.9059 128.271 62.6222 129.49 61.7246C130.709 60.8062 132.367 60.347 134.464 60.347H137.897V58.625C137.897 57.2682 137.587 56.2767 136.967 55.6506C136.346 55.0244 135.32 54.7113 133.886 54.7113C132.539 54.7113 131.02 55.0348 129.33 55.6819L128.913 54.5234C130.774 53.8137 132.474 53.4589 134.015 53.4589C135.854 53.4589 137.202 53.8868 138.058 54.7426C138.935 55.5984 139.373 56.8612 139.373 58.531V66.5776ZM132.988 69.2389C135.148 69.2389 136.785 68.2057 137.897 66.1393V61.4741H134.688C132.934 61.4741 131.587 61.8185 130.645 62.5074C129.704 63.1753 129.233 64.1876 129.233 65.5444C129.233 66.7133 129.565 67.6213 130.228 68.2683C130.891 68.9154 131.811 69.2389 132.988 69.2389Z" fill="#1A2EA1"/>
<path d="M155.231 53.4589C156.75 53.4589 157.894 53.8972 158.664 54.7739C159.435 55.6297 159.82 56.8612 159.82 58.4684V70.1156H158.344V58.6563C158.344 57.2787 158.065 56.2663 157.509 55.6192C156.953 54.9722 156.119 54.6487 155.006 54.6487C153.873 54.6487 152.867 54.9513 151.99 55.5566C151.113 56.1619 150.279 57.0386 149.487 58.1866V70.1156H148.011V53.772H149.295L149.423 56.6838C151.006 54.5339 152.942 53.4589 155.231 53.4589Z" fill="#1A2EA1"/>
<path d="M173.907 53.4589C176.089 53.4589 177.79 54.1999 179.009 55.6819C180.228 57.143 180.838 59.2094 180.838 61.8812C180.838 64.5529 180.218 66.6507 178.977 68.1744C177.736 69.6981 176.035 70.46 173.875 70.46C171.714 70.46 170.013 69.7086 168.773 68.2057C167.553 66.682 166.944 64.6051 166.944 61.9751C166.944 59.3242 167.564 57.2473 168.805 55.7445C170.067 54.2208 171.768 53.4589 173.907 53.4589ZM173.907 54.7113C172.217 54.7113 170.891 55.3375 169.928 56.5898C168.965 57.8214 168.484 59.6164 168.484 61.9751C168.484 64.292 168.955 66.0767 169.896 67.329C170.837 68.5814 172.163 69.2076 173.875 69.2076C175.565 69.2076 176.891 68.5814 177.854 67.329C178.816 66.0767 179.298 64.2607 179.298 61.8812C179.298 59.5434 178.827 57.7692 177.886 56.5585C176.945 55.327 175.618 54.7113 173.907 54.7113Z" fill="#1A2EA1"/>
</svg>
