<svg width="215" height="86" viewBox="0 0 215 86" fill="none" xmlns="http://www.w3.org/2000/svg">
<path d="M23.2199 46V28.18H10.7399V46H0.899902V4.41999H10.7399V20.5H23.2199V4.41999H33.0599V46H23.2199Z" fill="black"/>
<path d="M61.2608 46.06C59.9808 50.18 57.8808 53.34 54.9608 55.54C52.0808 57.78 48.2008 59.04 43.3208 59.32L42.3008 52.66C45.3408 52.26 47.5808 51.58 49.0208 50.62C50.5008 49.66 51.6808 48.12 52.5608 46H49.3208L39.6008 14.14H49.6808L55.3808 39.94L61.6208 14.14H71.4008L61.2608 46.06Z" fill="black"/>
<path d="M95.7955 13.12C99.5955 13.12 102.516 14.62 104.556 17.62C106.596 20.58 107.616 24.74 107.616 30.1C107.616 33.38 107.096 36.3 106.056 38.86C105.056 41.42 103.596 43.42 101.676 44.86C99.7955 46.3 97.5555 47.02 94.9555 47.02C93.2355 47.02 91.6555 46.66 90.2155 45.94C88.8155 45.22 87.6155 44.22 86.6155 42.94L86.1355 46H77.7355V1.47999L87.2155 0.459991V17.38C88.1755 16.06 89.3955 15.02 90.8755 14.26C92.3955 13.5 94.0355 13.12 95.7955 13.12ZM92.1955 40.12C95.9155 40.12 97.7755 36.78 97.7755 30.1C97.7755 26.3 97.3355 23.68 96.4555 22.24C95.5755 20.8 94.2955 20.08 92.6155 20.08C90.4955 20.08 88.6955 21.32 87.2155 23.8V37.06C87.8155 38.02 88.5355 38.78 89.3755 39.34C90.2555 39.86 91.1955 40.12 92.1955 40.12Z" fill="black"/>
<path d="M127.756 13.12C130.036 13.12 132.176 13.46 134.176 14.14C136.176 14.82 137.936 15.78 139.456 17.02L135.976 22.36C133.376 20.72 130.756 19.9 128.116 19.9C126.876 19.9 125.916 20.12 125.236 20.56C124.596 20.96 124.276 21.54 124.276 22.3C124.276 22.9 124.416 23.4 124.696 23.8C125.016 24.16 125.636 24.54 126.556 24.94C127.476 25.34 128.896 25.82 130.816 26.38C134.136 27.34 136.596 28.6 138.196 30.16C139.836 31.68 140.656 33.8 140.656 36.52C140.656 38.68 140.036 40.56 138.796 42.16C137.556 43.72 135.856 44.92 133.696 45.76C131.536 46.6 129.136 47.02 126.496 47.02C123.816 47.02 121.316 46.6 118.996 45.76C116.716 44.92 114.776 43.76 113.176 42.28L117.796 37.12C120.476 39.2 123.296 40.24 126.256 40.24C127.696 40.24 128.816 39.98 129.616 39.46C130.456 38.94 130.876 38.2 130.876 37.24C130.876 36.48 130.716 35.88 130.396 35.44C130.076 35 129.456 34.6 128.536 34.24C127.616 33.84 126.156 33.36 124.156 32.8C120.996 31.88 118.636 30.6 117.076 28.96C115.516 27.32 114.736 25.28 114.736 22.84C114.736 21 115.256 19.36 116.296 17.92C117.376 16.44 118.896 15.28 120.856 14.44C122.856 13.56 125.156 13.12 127.756 13.12Z" fill="black"/>
<path d="M162.34 13.12C167.22 13.12 171.04 14.62 173.8 17.62C176.56 20.58 177.94 24.74 177.94 30.1C177.94 33.5 177.3 36.48 176.02 39.04C174.78 41.56 172.98 43.52 170.62 44.92C168.3 46.32 165.54 47.02 162.34 47.02C157.5 47.02 153.68 45.54 150.88 42.58C148.12 39.58 146.74 35.4 146.74 30.04C146.74 26.64 147.36 23.68 148.6 21.16C149.88 18.6 151.68 16.62 154 15.22C156.36 13.82 159.14 13.12 162.34 13.12ZM162.34 20.08C160.42 20.08 158.98 20.9 158.02 22.54C157.06 24.14 156.58 26.64 156.58 30.04C156.58 33.52 157.04 36.06 157.96 37.66C158.92 39.26 160.38 40.06 162.34 40.06C164.26 40.06 165.7 39.26 166.66 37.66C167.62 36.02 168.1 33.5 168.1 30.1C168.1 26.62 167.62 24.08 166.66 22.48C165.74 20.88 164.3 20.08 162.34 20.08Z" fill="black"/>
<path d="M205.239 13.12C207.999 13.12 210.159 13.96 211.719 15.64C213.279 17.32 214.059 19.68 214.059 22.72V46H204.579V24.34C204.579 22.74 204.319 21.64 203.799 21.04C203.319 20.4 202.579 20.08 201.579 20.08C199.659 20.08 197.819 21.46 196.059 24.22V46H186.579V14.14H194.859L195.519 17.92C196.879 16.32 198.339 15.12 199.899 14.32C201.499 13.52 203.279 13.12 205.239 13.12Z" fill="black"/>
<path d="M77.3699 85V59.008H90.0239L89.7959 60.566H79.1559V71.168H88.3519V72.688H79.1559V85H77.3699Z" fill="#1A2EA1"/>
<path d="M106.896 80.706C106.896 81.8207 107.022 82.6187 107.276 83.1C107.554 83.5813 107.985 83.936 108.568 84.164L108.15 85.418C107.288 85.19 106.63 84.81 106.174 84.278C105.743 83.746 105.477 82.9607 105.376 81.922C103.932 84.2527 101.842 85.418 99.1056 85.418C97.2309 85.418 95.7489 84.886 94.6596 83.822C93.5703 82.7327 93.0256 81.2887 93.0256 79.49C93.0256 77.4633 93.7476 75.9053 95.1916 74.816C96.6356 73.7013 98.5989 73.144 101.082 73.144H105.148V71.054C105.148 69.4073 104.78 68.204 104.046 67.444C103.311 66.684 102.095 66.304 100.398 66.304C98.8016 66.304 97.0029 66.6967 95.0016 67.482L94.5076 66.076C96.7116 65.2147 98.7256 64.784 100.55 64.784C102.728 64.784 104.324 65.3033 105.338 66.342C106.376 67.3807 106.896 68.9133 106.896 70.94V80.706ZM99.3336 83.936C101.892 83.936 103.83 82.682 105.148 80.174V74.512H101.348C99.2703 74.512 97.6743 74.93 96.5596 75.766C95.4449 76.5767 94.8876 77.8053 94.8876 79.452C94.8876 80.8707 95.2803 81.9727 96.0656 82.758C96.8509 83.5433 97.9403 83.936 99.3336 83.936Z" fill="#1A2EA1"/>
<path d="M124.952 64.784C127.232 64.784 128.993 65.6707 130.234 67.444C131.501 69.192 132.134 71.7 132.134 74.968C132.134 78.2107 131.476 80.7693 130.158 82.644C128.866 84.4933 127.042 85.418 124.686 85.418C123.445 85.418 122.33 85.1393 121.342 84.582C120.354 84.0247 119.518 83.29 118.834 82.378L118.644 85H117.124V57.07L118.872 56.842V68.014C120.519 65.8607 122.546 64.784 124.952 64.784ZM124.42 83.898C126.295 83.898 127.739 83.138 128.752 81.618C129.766 80.098 130.272 77.8813 130.272 74.968C130.272 72.0547 129.791 69.876 128.828 68.432C127.891 66.988 126.51 66.266 124.686 66.266C123.445 66.266 122.368 66.57 121.456 67.178C120.57 67.7607 119.708 68.622 118.872 69.762V80.63C119.556 81.6433 120.367 82.4413 121.304 83.024C122.242 83.6067 123.28 83.898 124.42 83.898Z" fill="#1A2EA1"/>
<path d="M142.667 65.164V85H140.919V65.164H142.667ZM141.793 56.728C142.198 56.728 142.528 56.8547 142.781 57.108C143.034 57.3613 143.161 57.678 143.161 58.058C143.161 58.438 143.034 58.7547 142.781 59.008C142.528 59.2613 142.198 59.388 141.793 59.388C141.388 59.388 141.058 59.2613 140.805 59.008C140.552 58.7547 140.425 58.438 140.425 58.058C140.425 57.678 140.552 57.3613 140.805 57.108C141.058 56.8547 141.388 56.728 141.793 56.728Z" fill="#1A2EA1"/>
<path d="M164.883 80.706C164.883 81.8207 165.009 82.6187 165.263 83.1C165.541 83.5813 165.972 83.936 166.555 84.164L166.137 85.418C165.275 85.19 164.617 84.81 164.161 84.278C163.73 83.746 163.464 82.9607 163.363 81.922C161.919 84.2527 159.829 85.418 157.093 85.418C155.218 85.418 153.736 84.886 152.647 83.822C151.557 82.7327 151.013 81.2887 151.013 79.49C151.013 77.4633 151.735 75.9053 153.179 74.816C154.623 73.7013 156.586 73.144 159.069 73.144H163.135V71.054C163.135 69.4073 162.767 68.204 162.033 67.444C161.298 66.684 160.082 66.304 158.385 66.304C156.789 66.304 154.99 66.6967 152.989 67.482L152.495 66.076C154.699 65.2147 156.713 64.784 158.537 64.784C160.715 64.784 162.311 65.3033 163.325 66.342C164.363 67.3807 164.883 68.9133 164.883 70.94V80.706ZM157.321 83.936C159.879 83.936 161.817 82.682 163.135 80.174V74.512H159.335C157.257 74.512 155.661 74.93 154.547 75.766C153.432 76.5767 152.875 77.8053 152.875 79.452C152.875 80.8707 153.267 81.9727 154.053 82.758C154.838 83.5433 155.927 83.936 157.321 83.936Z" fill="#1A2EA1"/>
<path d="M183.662 64.784C185.46 64.784 186.816 65.316 187.728 66.38C188.64 67.4187 189.096 68.9133 189.096 70.864V85H187.348V71.092C187.348 69.42 187.018 68.1913 186.36 67.406C185.701 66.6207 184.713 66.228 183.396 66.228C182.053 66.228 180.862 66.5953 179.824 67.33C178.785 68.0647 177.797 69.1287 176.86 70.522V85H175.112V65.164H176.632L176.784 68.698C178.658 66.0887 180.951 64.784 183.662 64.784Z" fill="#1A2EA1"/>
<path d="M205.778 64.784C208.362 64.784 210.376 65.6833 211.82 67.482C213.264 69.2553 213.986 71.7633 213.986 75.006C213.986 78.2487 213.251 80.7947 211.782 82.644C210.313 84.4933 208.299 85.418 205.74 85.418C203.181 85.418 201.167 84.506 199.698 82.682C198.254 80.8327 197.532 78.312 197.532 75.12C197.532 71.9027 198.267 69.382 199.736 67.558C201.231 65.7087 203.245 64.784 205.778 64.784ZM205.778 66.304C203.777 66.304 202.206 67.064 201.066 68.584C199.926 70.0787 199.356 72.2573 199.356 75.12C199.356 77.932 199.913 80.098 201.028 81.618C202.143 83.138 203.713 83.898 205.74 83.898C207.741 83.898 209.312 83.138 210.452 81.618C211.592 80.098 212.162 77.894 212.162 75.006C212.162 72.1687 211.605 70.0153 210.49 68.546C209.375 67.0513 207.805 66.304 205.778 66.304Z" fill="#1A2EA1"/>
</svg>
